<?xml version="1.0" encoding="utf-8"?>
<!-- Generator: Adobe Illustrator 18.0.0, SVG Export Plug-In . SVG Version: 6.00 Build 0)  -->
<!DOCTYPE svg PUBLIC "-//W3C//DTD SVG 1.1//EN" "http://www.w3.org/Graphics/SVG/1.1/DTD/svg11.dtd">
<svg version="1.1" id="Layer_1" xmlns="http://www.w3.org/2000/svg" xmlns:xlink="http://www.w3.org/1999/xlink" x="0px" y="0px"
	 width="800px" height="600px" viewBox="0 0 800 600" enable-background="new 0 0 800 600" xml:space="preserve">
<g>
	<rect fill="#FFFFFF" width="800" height="600"/>
	<g>
		<g>
			<g>
				<g>
					<g>
						<path fill="#8DC63F" d="M64,219.6c-10.2,8.3-5.4,26.5-5.4,26.5s7.6-24.9,23.3-22.7C81.8,223.4,72.6,212.6,64,219.6z"/>
						<path fill="#D7DF23" d="M116.7,319.6c0,0-28.4-5.8-30-39.4s-10.9-65.5-26-56.8c0,0,9-20,29.7-10.3
							C109.3,222.1,126.7,274.6,116.7,319.6z"/>
						<g>
							<path fill="#009444" d="M118.1,332.3c-0.1-0.7-8.9-69.6-31.9-108.6l0.9-0.5c23.1,39.1,31.9,108.3,32,109L118.1,332.3z"/>
						</g>
					</g>
					<g>
						<path fill="#8DC63F" d="M124.9,315.2c0,0,12.9-11.2,21.5-40.8c8.7-29.7,16.5-80.4,28.1-93.4c0,0-34.9,9.8-45.9,48.2
							S115.3,302.2,124.9,315.2z"/>
						<g>
							<path fill="#009444" d="M123.9,332.2c0-0.9-0.3-93.4,32.6-134.2l0.8,0.6c-32.7,40.5-32.4,132.6-32.4,133.5L123.9,332.2z"/>
						</g>
					</g>
					<g>
						<path fill="#D7DF23" d="M133.4,319.6c0,0,16.3-3.7,33.9-41.8s53-46.1,53-46.1s-48.7-14.4-77.2,26.2
							C117.7,294.2,133.4,319.6,133.4,319.6z"/>
						<g>
							<path fill="#009444" d="M131.4,332.3l-1-0.1c0-0.2,3-20.4,12.1-42.2c8.4-20.2,24-45.9,50.3-53.8l0.3,1
								C143.5,252,131.5,331.5,131.4,332.3z"/>
						</g>
					</g>
				</g>
				<polygon fill="#E6E7E8" points="124.4,328 90.5,328 106.5,447.3 124.4,447.3 142.3,447.3 158.3,328 				"/>
			</g>
			<g>
				<g>
					<g>
						<path fill="#8DC63F" d="M586.1,219.6c-10.2,8.3-5.4,26.5-5.4,26.5s7.6-24.9,23.3-22.7C604,223.4,594.8,212.6,586.1,219.6z"/>
						<path fill="#D7DF23" d="M638.9,319.6c0,0-28.4-5.8-30-39.4s-10.9-65.5-26-56.8c0,0,9-20,29.7-10.3
							C631.5,222.1,648.9,274.6,638.9,319.6z"/>
						<g>
							<path fill="#009444" d="M640.3,332.3c-0.1-0.7-8.9-69.6-31.9-108.6l0.9-0.5c23.1,39.1,31.9,108.3,32,109L640.3,332.3z"/>
						</g>
					</g>
					<g>
						<path fill="#8DC63F" d="M647.1,315.2c0,0,12.9-11.2,21.5-40.8c8.7-29.7,16.5-80.4,28.1-93.4c0,0-34.9,9.8-45.9,48.2
							C639.8,267.6,637.5,302.2,647.1,315.2z"/>
						<g>
							<path fill="#009444" d="M646.1,332.2c0-0.9-0.3-93.4,32.6-134.2l0.8,0.6c-32.7,40.5-32.4,132.6-32.4,133.5L646.1,332.2z"/>
						</g>
					</g>
					<g>
						<path fill="#D7DF23" d="M655.6,319.6c0,0,16.3-3.7,33.9-41.8s53-46.1,53-46.1s-48.7-14.4-77.2,26.2
							C639.9,294.2,655.6,319.6,655.6,319.6z"/>
						<g>
							<path fill="#009444" d="M653.6,332.3l-1-0.1c0-0.2,3-20.4,12.1-42.2c8.4-20.2,24-45.9,50.3-53.8l0.3,1
								C665.6,252,653.7,331.5,653.6,332.3z"/>
						</g>
					</g>
				</g>
				<polygon fill="#E6E7E8" points="646.6,328 612.7,328 628.7,447.3 646.6,447.3 664.5,447.3 680.5,328 				"/>
			</g>
		</g>
		<g>
			<ellipse fill="#BCBEC0" cx="382" cy="448.5" rx="243.5" ry="11.2"/>
			<g>
				<g>
					<g>
						<g>
							<path fill="#FBBCA1" d="M209.5,240.6c13.4-11.1,22.2-9.6,33.2,4.4c11,14,11.8,26.4,1,31.6C232.8,281.9,185.1,261,209.5,240.6
								z"/>
							<path fill="#FBBCA1" d="M240.8,269.9c0,0,8,10.8,14.8,15l-20.2,4.7l-17.9-23.4L240.8,269.9z"/>
						</g>
						<path fill="#183145" d="M225.5,273.7c0.2-6-5.9-20.8-15.2-24c0,0,24.4-4.5,24.8-15.5c0.4-11-9-5-15.8-3.3
							c-6.9,1.7-17.1,3.2-20.2,9.7c-3.1,6.4,1.5,14.3,1.5,14.3s-5.1,3.1-1.7,10.4S225.2,283.1,225.5,273.7z"/>
					</g>
					<path fill="#FFFFFF" d="M545.4,357.3c0,0,13.2,5.1,19.7,11.9s23.9-32.8,19.7-41.4c-4.1-8.6-15.4,22.1-20.5,23.1
						c-5.1,1-14.8-2.9-14.8-2.9L545.4,357.3z"/>
					<path fill="#183145" d="M359.6,321.9c0,0,55.2-8.3,98.8-5.8c43.6,2.6,100.3,33.1,100.3,33.1l-4,13.2c0,0-75.7-12.9-91.1-12.9
						s-54.6,34-120,19.2L359.6,321.9z"/>
					<path fill="#1C75BC" d="M235.4,289.6l15.1-8.8c0,0,15.4-0.4,33.3,8.8c18,9.3,59,28.3,82.1,31.5c0,0-1.9,22.7-25,50.9
						c-20.2-4.8-59.1-15.1-78.9-35.9C237.7,310.5,235.4,289.6,235.4,289.6z"/>
					<path fill="#FBBCA1" d="M244.3,294.6c5.5-4.5,12.8-5.6,28.2,2.6s38.8,17.1,57.7,18.6c18.9,1.4,58.2-4.9,58.2-4.9l2.5,7.4
						c0,0-36.8,19.9-73.3,18.7C281.1,335.6,228.1,307.8,244.3,294.6z"/>
					<path fill="#FBBCA1" d="M388.5,310.8c0,0,9-3.8,19.2-2.6c10.3,1.3,17.5,9.8,15.4,10.7c-2.1,0.9-32.1-0.7-32.1-0.7L388.5,310.8z
						"/>
					<path fill="#FFFFFF" d="M241.3,295.4c2.6-5.1,6.9-8.7,22.3-5.8s47.9,18.4,47.9,18.4l-10.8,33.1c0,0-29.8-9.8-45.7-18.7
						S238.3,301.3,241.3,295.4z"/>
				</g>
				<path fill="#D7DF23" d="M167.5,289.7c0-20.2,23-32.1,39.3-20.2c4.4,3.2,8.9,7.6,13.7,13.5c19.6,24.3,70.1,74.4,115.5,81.3
					c45.3,6.9,188.2-12,225,0c36.8,12,35.5,67.3,35.5,67.3h-429V289.7z"/>
				<path fill="#183145" d="M575.9,399.4c-39.8-13-194.5,7.5-243.6,0c-49.1-7.5-103.9-61.7-125.1-88.1
					c-15.6-19.4-29.4-23.5-39.6-22.6v158.7h429c0,0,0.2-24.6-1.9-36C589.7,406.2,583.5,401.9,575.9,399.4z"/>
			</g>
			<g>
				<ellipse fill="#BCBEC0" cx="524.3" cy="485.1" rx="137.2" ry="11.2"/>
				<g>
					<g>
						<g>
							<g>
								<polygon fill="#8B5E3C" points="554.5,365.3 539.9,479.7 547.2,479.7 567.9,365.3 								"/>
								<polygon fill="#8B5E3C" points="610.9,365.3 625.5,479.7 618.2,479.7 597.5,365.3 								"/>
							</g>
							<g>
								<polygon fill="#C49A6C" points="496.3,375.5 481.8,490 489.1,490 509.8,375.5 								"/>
								<polygon fill="#C49A6C" points="552.8,375.5 567.3,490 560,490 539.3,375.5 								"/>
							</g>
						</g>
						<path fill="#D7DF23" d="M629.4,267.3c-7-17.7-22.9-28.3-47.7-22.1c-36.3,9.1-35.9,64.5-51.2,78.9s-45.8,17.3-47.3,44.8
							s108.3,33.6,133.1,7.5C641,350.2,638.5,290.4,629.4,267.3z"/>
					</g>
					<g>
						<path fill="#183145" d="M541.5,199.3l-3.5,31.2c0,0,16,5.9,25,0s5.4-31.2,5.4-31.2H541.5z"/>
						<path fill="#FFFFFF" d="M460.9,466.4c0,0-3.8,12.1-2.8,20.4s-36.4-1.9-40-9.7c-3.6-7.7,24.1,1.8,27.6-1.2s6.4-12,6.4-12
							L460.9,466.4z"/>
						<path fill="#FFFFFF" d="M423.8,422.2c0,0-9.8,8-13.5,15.6c-3.7,7.6-29.4-21.5-28.2-30c1.2-8.5,19.2,14.6,23.8,14.1
							c4.6-0.5,11.9-6.5,11.9-6.5L423.8,422.2z"/>
						<path fill="#DA1C5C" d="M532.2,347.4c0,0-45.4,16.8-58.3,39.2c-12.8,22.5-27.3,82.7-27.3,82.7l14.4,4.8c0,0,32.9-65.8,46.5-73
							c13.6-7.2,73.4-11.8,73.4-53.7H532.2z"/>
						<path fill="#662D91" d="M540.4,242.1c-9.5,1.5-22.4,38-37.2,64.1l13.3,7.7c0,0,20.4-13.2,29.9-38S540.4,242.1,540.4,242.1z"/>
						<path fill="#92278F" d="M522,255.5c0,0-9.5,20.8-16,37.1c-6.5,16.3-0.3,25.8,10.7,21.4c11-4.4,12.4-55.5,12.4-55.5L522,255.5z
							"/>
						<path fill="#FBBCA1" d="M522,255.7c0,0-1.1-7.5-0.5-12s8-11,9.5-10c1.5,1.1-1.8,8.7-1.1,12.5c0.7,3.9-1.6,12.1-1.6,12.1
							L522,255.7z"/>
						<path fill="#92278F" d="M599.1,344.5c0,0,1.7-29.6,2.5-59.8c0.9-30.2-2.1-47-2.1-47c-10.2-0.2-59.1,4.4-59.1,4.4
							s-9,31.1-14.9,43c-6,11.9,11.5,14,11.5,14l-4.8,48.3c0,0,5.3,4.1,25.3,3.2S599.1,344.5,599.1,344.5z"/>
						<path fill="#183145" d="M522.5,272l8.6,48.5c0.4,2.3,2.4,4,4.7,4h31.1c3,0,5.2-2.7,4.7-5.6l-8.6-48.5c-0.4-2.3-2.4-4-4.7-4
							h-31.1C524.2,266.4,522,269.1,522.5,272z"/>
						<path fill="#FBBCA1" d="M557.4,299.6c0,0-6.6-1.7-8.3-4.7c-1.7-3-5.4-7.8-6.6-7.4c-1.2,0.4,0,5.3,0,5.3s-12.7-5.1-11.7-0.9
							s2.7,12.1,25.5,11.5L557.4,299.6z"/>
						<path fill="#92278F" d="M599.5,237.8c8.8-1.4,18.7,64.8,6,75.5c-12.8,10.6-55.1-10.2-55.1-10.2l1.4-6.4c0,0,39.2,2.6,43.5,1.3
							c0,0-8.3-27.6-8.4-39.6C586.8,246.4,589.7,239.3,599.5,237.8z"/>
						<g>
							<path fill="#FBBCA1" d="M561.5,185.4c-15.6,0.3-20.7,6.5-19.9,22.5s7.5,24.9,17.9,22C569.9,227.1,590,184.8,561.5,185.4z"/>
							<path fill="#FBBCA1" d="M557.4,223.6c0,0,1.3,13.5,1.3,18.5l-1.3,21.3l16.7-24.2l-3.1-31.8L557.4,223.6z"/>
						</g>
						<path fill="#EE2A7B" d="M599.1,344.5c0,0-3.9,27.1-33.3,37.3c-29.4,10.3-61.4-2.2-78.3-0.6c-16.9,1.6-65.8,47.1-65.8,47.1
							l-11.2-10.5c0,0,45.6-57.4,66.6-67.1C513.8,333.7,599.1,344.5,599.1,344.5z"/>
						<path fill="#183145" d="M574.2,187.8c-2.8-2.9-7-5.7-15.3-5.7c-13.6,0-20.5,8.7-20.8,20.8c0,0,14.1,3.6,29.2,1.8l4.5,29
							l6.1-1.1c6.8-1.2,11.1-7.9,9.2-14.6C584.2,207.6,579.5,193.4,574.2,187.8z"/>
					</g>
				</g>
			</g>
		</g>
		<g>
			<g>
				<g>
					<path fill="#C3E7EE" d="M251.6,146.9v42.4c0,6.9,5.6,12.5,12.5,12.5h94.9c6.9,0,12.5-5.6,12.5-12.5v-42.4
						c0-6.9-5.6-12.5-12.5-12.5H264C257.2,134.4,251.6,140,251.6,146.9z"/>
				</g>
				<polygon fill="#C3E7EE" points="281.6,191.7 273.2,214.7 305.6,191.7 				"/>
			</g>
		</g>
		<g>
			<g>
				<g>
					<path fill="#C3E7EE" d="M531.2,116.1v42.4c0,6.9-5.6,12.5-12.5,12.5h-94.9c-6.9,0-12.5-5.6-12.5-12.5v-42.4
						c0-6.9,5.6-12.5,12.5-12.5h94.9C525.6,103.7,531.2,109.3,531.2,116.1z"/>
				</g>
				<polygon fill="#C3E7EE" points="501.2,161 509.6,183.9 477.2,161 				"/>
			</g>
		</g>
	</g>
</g>
</svg>
